<svg xmlns="http://www.w3.org/2000/svg" version="1.0" viewBox="0 0 194 345">
	<path
		d="M100.4 21.6c-13.5 8.1-20.3 18.6-21.1 32.8-.5 8.6-.7 7.5 9.4 36.3 1.1 3.1 1.3 5.9.8 10l-.7 5.8-7.2-14.6c-3.9-8-8.6-16.4-10.4-18.7-6.7-8.4-18.5-12.9-30.5-11.7l-7 .7.6 5.7c.7 8.4 5.8 18.1 12.8 24.6 5.7 5.2 7.1 5.9 21.8 10.6 4.1 1.3 8.8 3.5 10.3 4.8 6.1 5.1 9.1 14.7 10.8 35.6.7 7.7 2 19.2 3.1 25.5 2.3 14 2.3 14.1.3 11-1-1.4-3.6-4.5-5.9-7-3.4-3.6-4.5-5.9-5.8-11.4-4.3-17.6-19.9-33.6-39.4-40.2-6.3-2.2-9.8-2.7-18.5-2.8-13.4-.1-13.7.1-11.4 8.6 4.3 15.5 13.8 29 24.9 35.2 7.8 4.4 15.5 6.4 27.6 7.3 10.5.7 12.2 1.3 17.8 6.4 8.3 7.6 13.3 16.6 17 30.8 3.1 12.2 3.6 32.4 1.1 47.6-2.5 14.8-3.3 25.5-1.9 25.5.6 0 1.1-.4 1.1-.8 0-1.3 10.2-11.1 14.1-13.6 3-1.9 2.7-1.4-2.3 4.6-3.2 3.8-6.8 8.5-8.1 10.5-3.3 5.2-7.7 16.6-7.7 19.7 0 5.6-1.8 2.1-3.9-7.4-2.6-12.3-2.6-15-.2-32.6 1.5-10.4 1.7-15.2 1-18.9-4-21.2-25.7-35.2-44.3-28.6-7.3 2.6-11.1 6-14.5 13.1-2.3 4.9-2.6 6.7-2.6 16.5 0 10.6.2 11.3 3.4 18 4.2 8.4 15.6 20.7 27.2 29.1 19.8 14.4 26 20 34.5 31.8l2 2.8 4.3-5.6c6-8 14.3-15.8 23.6-22.3 16.6-11.6 25.9-20.2 31.1-29 5.7-9.5 7.5-14.7 8.1-22.8 1.1-13.8-4.8-24.7-15.9-29.5-6.9-3-17.7-3.2-22.8-.6-5.3 2.8-11.8 8.4-15.2 13l-2.9 4.1.6-8c2.3-29.1 7-41.3 19.1-49.5 5.2-3.4 13.5-7 16.2-7 .9.1.1.7-2 1.4-6.2 2.2-12.2 6.2-17 11.4-4.9 5.2-8.3 10.8-7 11.5 2.5 1.5 14.5 1.7 20.7.3 8.1-1.6 13.8-4.6 21.5-11.1 3-2.6 6.4-5.4 7.5-6.4 1.1-.9 3.7-2.7 5.7-3.9 4.2-2.6 4.1-3.4-.5-8.3-13.6-14.7-39.9-14.2-53.5 1-3.7 4.2-6.8 10.4-9.7 19.3-1.5 4.6-2.9 9-3.2 9.8-.8 2.3-2.1-1.8-4.9-15-3-14.3-3.1-23.1-.3-31.3 2-6 5.6-11.9 8.9-14.4.8-.7 5.7-2.2 10.8-3.3 10.1-2.4 18.6-6.2 24.6-11.2 8.6-7.1 15.1-21.7 14.4-32.3-.3-4.9-.4-4.9-4.3-5.8-6.5-1.4-19.6-.2-25 2.4-6.7 3.2-15.6 11.8-19.2 18.6-3.8 7-7.3 18.2-7.3 23 0 1.9-1.6 6.7-3.5 10.7s-3.5 8.2-3.6 9.2c-.2 4.2-1.9-4.5-3-15.7-1.5-13.9-.3-25.3 3.5-33.3 1.3-2.8 5.4-8.7 9-13.1 3.7-4.4 8.1-10.9 9.8-14.4 2.9-5.8 3.2-7.3 3.3-16 0-9.6-1.2-14.7-5.2-22.4-2.4-4.7-6.4-9.7-7.7-9.7-.7 0-3.9 1.6-7.2 3.6" />
</svg>